<?xml version="1.0" encoding="utf-8"?>
<!-- Generator: Adobe Illustrator 19.2.0, SVG Export Plug-In . SVG Version: 6.00 Build 0)  -->
<svg version="1.1" id="Layer_1" xmlns="http://www.w3.org/2000/svg" xmlns:xlink="http://www.w3.org/1999/xlink" x="0px" y="0px"
	 viewBox="0 0 67.8 26.9" style="enable-background:new 0 0 67.8 26.9;" xml:space="preserve">
<style type="text/css">
	.st0{fill:#FFFFFF;}
	.st1{enable-background:new    ;}
</style>
<title>carpiii</title>
<path class="st0" d="M29.1,26.1c0.7,0,1.5,0,2.3-0.2c0.9-0.1,1.8-0.4,2.8-0.7c0.5,0.8,1.3,1.3,2.1,1.5c0.8,0.2,1.7,0.1,2.5-0.4
	c0.8-0.5,1.3-1.3,1.5-2.1s0.1-1.7-0.4-2.5s-1.2-1.3-2.1-1.5c-0.8-0.2-1.7-0.1-2.5,0.4c-0.6,0.4-1,0.9-1.2,1.4
	c-0.3,0.6-0.4,1.2-0.3,1.9c-0.9,0.3-1.8,0.5-2.5,0.6c-0.8,0.1-1.5,0.2-2.1,0.1c-2.1-0.1-7.4-0.7-12.7-1.7
	c-5.3-1.1-10.7-2.6-13.2-4.7c-0.7-0.6-1.4-1.6-1.7-3.2s-0.2-3.5,0.6-5.9c0.4-1,0.8-1.9,1.3-2.8s1-1.8,1.7-2.6C5.7,3,6.3,2.4,7,2
	s1.4-0.6,2.2-0.6c0.7,0,1.5,0.1,2.3,0.4s1.6,0.6,2.3,1C13.9,2.8,14,2.9,14,3c0,0.1,0,0.2,0,0.3c0,0,0,0.1-0.1,0.1c0,0,0,0-0.1,0.1
	l-0.6,0.4l-0.6,0.4c1.9,0.7,4.2,2,6.1,3c1.9,1,3.3,1.9,3.3,1.9c-0.1-0.2-1.8-2.5-4.2-4.7S12.3,0,9.2,0c-1,0-2,0.3-2.8,0.8S4.7,2,4,3
	C3.4,3.9,2.8,4.8,2.3,5.7s-1,2-1.4,3C0.6,9.5,0.4,10.2,0.3,11S0,12.6,0,13.4c0,1.3,0.2,2.5,0.6,3.5s1,1.9,1.8,2.5
	c2.8,2.4,8.7,4,14.3,5.1C22.3,25.5,27.6,26.1,29.1,26.1z M37.8,21.7c0.5,0.2,0.9,0.6,1.1,1c0.2,0.5,0.3,1,0.1,1.5
	c-0.2,0.5-0.6,0.9-1,1.1c-0.5,0.2-1,0.3-1.5,0.1c-0.5-0.2-0.9-0.6-1.1-1c-0.2-0.5-0.3-1-0.1-1.5c0.2-0.5,0.5-0.9,1-1.1
	C36.7,21.6,37.3,21.5,37.8,21.7z"/>
<g class="st1">
	<path class="st0" d="M28.8,12.5l0-1v-1c0-2.3-0.8-3.5-2.3-3.5c-0.7,0-1.2,0.2-1.5,0.7c-0.4,0.5-0.6,1-0.6,1.6
		c0,0.6,0.1,1.1,0.2,1.6c-0.3,0.3-0.8,0.5-1.4,0.5c-0.6,0-0.9-0.5-0.9-1.5c0-1,0.4-1.8,1.2-2.5s1.9-1,3.3-1c2.8,0,4.2,1.6,4.2,4.9
		v6.1c0,1.1,0.3,1.6,0.9,1.6c0.3,0,0.5-0.1,0.7-0.4c0.2-0.3,0.3-0.6,0.3-0.9s0-0.7-0.1-1l0.6-0.1c0.1,0.3,0.1,0.6,0.1,1
		c0,0.7-0.2,1.3-0.6,1.7c-0.4,0.4-1,0.6-1.7,0.6s-1.3-0.3-1.7-0.9s-0.7-1.4-0.7-2.6v-0.5c-0.3,1.4-0.9,2.4-1.6,3
		c-0.7,0.6-1.6,1-2.6,1c-1,0-1.8-0.3-2.3-0.9c-0.6-0.6-0.9-1.4-0.9-2.4c0-1,0.5-1.9,1.4-2.7c0.9-0.8,2.3-1.2,4.1-1.2
		c0.4,0,1,0,1.9,0.2V12.5z M25.3,18.7c0.8,0,1.6-0.5,2.3-1.4c0.7-0.9,1.1-2.3,1.2-4c-0.2,0-0.5,0-0.8,0c-1.6,0-2.7,0.3-3.4,1
		c-0.7,0.7-1,1.4-1,2.3c0,0.6,0.2,1.1,0.5,1.5C24.3,18.5,24.8,18.7,25.3,18.7z"/>
	<path class="st0" d="M42.8,6.2c0.8,0,1.4,0.3,1.9,1s0.7,1.5,0.7,2.5s-0.4,1.5-1.2,1.5c-0.5,0-0.9-0.2-1.2-0.5
		c0.3-0.6,0.4-1.2,0.4-1.8c0-1.1-0.4-1.6-1.3-1.6c-0.7,0-1.4,0.6-2,1.8c-0.6,1.2-0.9,3-0.9,5.4v4c0,0.3,0.1,0.4,0.4,0.4h2v0.5h-6.4
		V19h1.4c0.3,0,0.4-0.1,0.4-0.4v-11c0-0.3-0.1-0.4-0.4-0.4h-1.4V6.6h1.5c1.2,0,2-0.1,2.5-0.2v3.8c0.3-1.4,0.8-2.4,1.4-3
		C41.4,6.5,42.1,6.2,42.8,6.2z"/>
	<path class="st0" d="M48.4,25V7.5c0-0.3-0.1-0.4-0.4-0.4h-1.4V6.6H48c1.2,0,2-0.1,2.5-0.2v4.2c0.3-1.4,0.9-2.5,1.6-3.3
		c0.8-0.7,1.6-1.1,2.5-1.1c1.3,0,2.4,0.6,3.3,1.9c1,1.3,1.4,2.9,1.4,5c0,2.1-0.5,3.7-1.6,4.9c-1.1,1.2-2.5,1.8-4.3,1.8
		c-1.1,0-2.1-0.3-3-0.8v6c0,0.3,0.1,0.4,0.4,0.4h2V26h-6.4v-0.5h1.4C48.2,25.5,48.4,25.3,48.4,25z M57.2,13.2c0-1.9-0.3-3.3-0.9-4.3
		c-0.6-1-1.3-1.5-2.2-1.5c-0.9,0-1.7,0.6-2.4,1.8c-0.7,1.2-1.1,2.9-1.1,5.1v4c0.9,0.6,1.8,0.9,2.9,0.9s1.9-0.5,2.7-1.6
		C56.8,16.5,57.2,15,57.2,13.2z"/>
	<path class="st0" d="M63.8,18.6v-11c0-0.3-0.1-0.4-0.4-0.4H62V6.6h1.5c1.2,0,2-0.1,2.5-0.2v12.2c0,0.2,0.1,0.4,0.4,0.4h1.4v0.5H62
		V19h1.4C63.7,19,63.8,18.8,63.8,18.6z M63.9,3.2c-0.3-0.3-0.4-0.6-0.4-1s0.1-0.7,0.4-1c0.3-0.3,0.6-0.4,1-0.4s0.7,0.1,1,0.4
		c0.3,0.3,0.4,0.6,0.4,1s-0.1,0.7-0.4,1c-0.3,0.3-0.6,0.4-1,0.4S64.2,3.5,63.9,3.2z"/>
</g>
</svg>
